<?xml version="1.0" standalone="no"?>
<!DOCTYPE svg PUBLIC "-//W3C//DTD SVG 20010904//EN"
 "http://www.w3.org/TR/2001/REC-SVG-20010904/DTD/svg10.dtd">
<svg version="1.0" xmlns="http://www.w3.org/2000/svg"
 width="632.000000pt" height="599.000000pt" viewBox="0 0 632.000000 599.000000"
 preserveAspectRatio="xMidYMid meet">

<g transform="translate(0.000000,599.000000) scale(0.100000,-0.100000)"
fill="rgb(103, 163, 25)" stroke="none">
<path d="M2 4593 c1 -769 3 -1378 5 -1353 66 912 543 1719 1318 2229 438 288
949 462 1495 510 56 5 -508 9 -1362 10 l-1458 1 2 -1397z"/>
<path d="M3330 5979 c938 -80 1769 -521 2325 -1234 777 -996 841 -2344 161
-3375 -340 -516 -861 -931 -1436 -1144 -69 -26 -132 -50 -141 -55 -31 -18
-237 -72 -379 -101 -139 -28 -344 -56 -460 -63 -30 -2 614 -4 1433 -5 l1487
-2 0 2995 0 2995 -1542 -1 c-876 -1 -1502 -5 -1448 -10z"/>
<path d="M2350 4893 c-82 -10 -353 -68 -367 -79 -16 -11 -19 -45 -27 -332 -5
-176 -6 -333 -2 -347 7 -26 8 -26 25 -10 13 11 21 13 26 6 3 -6 10 -11 15 -11
5 0 57 62 116 138 59 75 111 141 116 147 21 24 122 -49 273 -200 150 -149 152
-151 218 -280 36 -71 120 -231 186 -355 l120 -225 122 -27 c152 -34 272 -73
292 -96 34 -38 51 -166 67 -492 17 -338 51 -743 115 -1365 14 -137 28 -295 31
-350 7 -124 11 -146 27 -139 8 3 44 -41 92 -108 259 -370 395 -553 356 -480
-8 14 -11 199 -11 604 l0 583 20 -25 c19 -23 21 -24 31 -7 10 18 11 18 24 0 7
-10 16 -15 19 -12 11 11 25 250 42 739 9 267 19 488 23 492 5 6 77 -50 504
-400 113 -92 136 -105 129 -73 -2 9 6 7 24 -8 15 -12 29 -19 31 -17 7 6 5 9
-379 649 -198 329 -384 641 -414 693 l-55 95 3 349 3 350 -265 86 c-146 47
-296 99 -333 116 -38 16 -180 61 -315 99 -450 127 -608 184 -716 257 -50 34
-95 43 -166 35z"/>
<path d="M2 1453 l-2 -1453 1538 1 c930 1 1496 5 1432 10 -469 38 -953 180
-1344 395 -817 447 -1392 1213 -1566 2084 -25 125 -36 206 -53 380 -2 19 -5
-619 -5 -1417z"/>
</g>
</svg>
